HIERARCHY
ROOT Hips
{
    OFFSET 0.0 0.0 0.0
    CHANNELS 6 Xposition Yposition Zposition Zrotation Xrotation Yrotation
    JOINT Spine
    {
        OFFSET 0.0 5.0 0.0
        CHANNELS 3 Zrotation Xrotation Yrotation
        JOINT Chest
        {
            OFFSET 0.0 5.0 0.0
            CHANNELS 3 Zrotation Xrotation Yrotation
            JOINT Neck
            {
                OFFSET 0.0 8.0 0.0
                CHANNELS 3 Zrotation Xrotation Yrotation
                JOINT Head
                {
                    OFFSET 0.0 5.0 0.0
                    CHANNELS 3 Zrotation Xrotation Yrotation
                    End Site
                    {
                        OFFSET 0.0 3.0 0.0
                    }
                }
            }
            JOINT LeftShoulder
            {
                OFFSET -5.0 0.0 0.0
                CHANNELS 3 Zrotation Xrotation Yrotation
                JOINT LeftArm
                {
                    OFFSET 0.0 -10.0 0.0
                    CHANNELS 3 Zrotation Xrotation Yrotation
                    JOINT LeftForeArm
                    {
                        OFFSET 0.0 -10.0 0.0
                        CHANNELS 3 Zrotation Xrotation Yrotation
                        End Site
                        {
                            OFFSET 0.0 -3.0 0.0
                        }
                    }
                }
            }
        }
    }
}

MOTION
Frames: 29
Frame Time: 0.033333
960.000000 445.000000 117.244826 0.000000 0.000000 0.000000 0.000000 0.000000 0.000000 23.025492 33.648766 0.000000 180.000000 0.539340 0.000000 21.801409 -8.023919 -0.000000 158.198591 -6.948040 30.000000 15.945396 -5.887579 0.000000 18.000000 0.455150 0.000000
1691.525230 140.756605 110.125074 0.000000 0.000000 0.000000 0.000000 0.000000 0.000000 -163.376529 -7.162004 4.973798 16.623471 5.325677 4.973798 -171.853121 -3.825148 3.759997 99.744051 8.203217 29.763441 -171.126653 -3.908942 -3.759997 0.673538 0.418391 0.313953
1636.048050 128.802021 115.464509 0.000000 0.000000 0.000000 0.000000 0.000000 0.000000 157.904128 -18.658569 9.635073 -22.095872 44.387604 9.635073 -171.936471 -4.603027 7.460697 -143.675701 5.607515 29.057495 -173.500805 -4.292280 -7.460697 0.570999 0.464937 0.626666
1578.156967 80.474526 94.511114 0.000000 0.000000 0.000000 0.000000 0.000000 0.000000 -139.519796 -2.829064 13.690942 40.480204 -10.489484 13.690942 -174.507724 -3.274043 11.043737 119.111399 7.412622 27.893295 -173.607258 -4.494420 -11.043737 0.461920 0.406057 0.936907
960.418757 444.998421 130.414787 0.000000 0.000000 0.000000 0.000000 0.000000 0.000000 25.077893 -3.953270 16.886559 180.000000 -8.106888 16.886559 23.861935 -6.779268 14.452610 156.138065 0.988046 26.289200 17.903699 -0.579516 -14.452610 18.000000 -0.222438 1.243449
960.523360 444.997533 122.798240 0.000000 0.000000 0.000000 0.000000 0.000000 0.000000 25.638906 7.824062 19.021130 180.000000 -4.162801 19.021130 24.425035 9.659153 17.633558 155.574965 3.453790 24.270510 18.452907 -5.681610 -17.633558 18.000000 0.293556 1.545085
960.627905 444.996447 133.948552 0.000000 0.000000 0.000000 0.000000 0.000000 0.000000 26.219073 -35.343956 19.960535 180.000000 -2.082419 19.960535 25.006291 0.440213 20.536413 154.993709 -0.263916 21.869059 19.024920 6.197320 -20.536413 18.000000 -0.111418 1.840623
1126.242828 420.359820 131.264865 0.000000 0.000000 0.000000 0.000000 0.000000 0.000000 31.410514 -5.110766 19.645745 -148.589486 1.635849 19.645745 32.280463 2.152164 23.115397 -131.603972 -1.380176 19.122720 45.585331 2.376332 -23.115397 -13.449727 0.011739 2.128896
1257.895088 650.549197 158.247624 0.000000 0.000000 0.000000 0.000000 0.000000 0.000000 25.073180 -24.873904 18.096541 -154.926820 31.616261 18.096541 46.260945 -17.187175 25.329838 -154.651428 -5.000003 16.074804 27.339487 5.627946 -25.329838 -13.619892 -2.107310 2.408768
960.941083 444.992008 136.342759 0.000000 0.000000 0.000000 0.000000 0.000000 0.000000 28.072001 5.165373 15.410265 180.000000 -2.269085 15.410265 26.849221 -11.099709 27.144812 153.150779 0.295589 12.773379 20.864045 0.768811 -27.144812 18.000000 0.775984 2.679134
1163.815842 547.748709 126.438755 0.000000 0.000000 0.000000 0.000000 0.000000 0.000000 117.162728 -14.862814 11.755705 -62.837272 8.364240 11.755705 102.363764 -10.128122 28.531695 -47.376450 1.430593 9.270510 104.768601 3.402619 -28.531695 -6.003489 -0.016898 2.938926
961.149372 444.988063 148.705420 0.000000 0.000000 0.000000 0.000000 0.000000 0.000000 29.395983 37.552290 7.362491 180.000000 -19.936639 7.362491 28.146217 5.750397 29.468618 151.853783 -18.924733 5.621439 22.170006 9.167152 -29.468618 18.000000 -0.663057 3.187120
1136.717377 590.104480 138.945644 0.000000 0.000000 0.000000 0.000000 0.000000 0.000000 115.752126 2.820997 2.506665 -64.247874 4.891662 2.506665 73.638146 2.075899 29.940802 -21.842452 2.613699 1.883716 75.369282 -0.108968 -29.940802 -6.767207 -0.613830 3.422736
1163.079758 634.077559 144.973714 0.000000 0.000000 0.000000 0.000000 0.000000 0.000000 132.174340 6.088194 -2.506665 -47.825660 -8.463083 -2.506665 94.255711 0.169663 29.940802 -149.364979 -7.430852 -1.883716 30.021641 5.717141 -29.940802 -5.096180 -0.555848 3.644843
961.460830 444.980668 139.959231 0.000000 0.000000 0.000000 0.000000 0.000000 0.000000 31.497152 -33.572285 -7.362491 180.000000 16.453238 -7.362491 30.152455 -10.066233 29.468618 149.847545 -7.361656 -5.621439 24.175589 12.788990 -29.468618 18.000000 -0.208343 3.852566
1097.449951 565.089898 145.019475 0.000000 0.000000 0.000000 0.000000 0.000000 0.000000 -119.219568 2.339288 -11.755705 60.780432 -0.451307 -11.755705 -150.180642 -7.035221 28.531695 48.804955 -2.465240 -9.270510 -149.874178 -6.001545 -28.531695 2.713854 0.590358 4.045085
1114.140244 528.302071 152.173574 0.000000 0.000000 0.000000 0.000000 0.000000 0.000000 -142.671523 1.318523 -15.410265 37.328477 -0.454621 -15.410265 -177.395681 -2.070580 27.144812 34.687329 1.238540 -12.773379 161.894167 -4.255455 -27.144812 -0.910956 0.094709 4.221640
1116.433640 479.728639 124.953315 0.000000 0.000000 0.000000 0.000000 0.000000 0.000000 -102.267481 9.545488 -18.096541 77.732519 -3.575425 -18.096541 -163.695626 3.809510 25.329838 38.575767 0.241635 -16.074804 -176.001122 -0.213522 -25.329838 0.706594 -0.206943 4.381533
1135.931282 466.493965 152.700985 0.000000 0.000000 0.000000 0.000000 0.000000 0.000000 -112.868406 -12.460402 -19.645745 67.131594 3.699122 -19.645745 -159.517862 3.699840 23.115397 36.204678 1.297811 -19.122720 -154.426613 -5.932565 -23.115397 2.428729 0.591769 4.524135
1141.618767 467.420679 144.267781 0.000000 0.000000 0.000000 0.000000 0.000000 0.000000 -123.086385 -9.200735 -19.960535 56.913615 9.298372 -19.960535 -154.885724 -6.859185 20.536413 36.481623 3.852633 -21.869059 -153.965441 -6.477789 -20.536413 2.446728 0.535330 4.648882
1150.647926 469.370956 156.753571 0.000000 0.000000 0.000000 0.000000 0.000000 0.000000 -43.953779 8.614149 -19.021130 136.046221 5.694463 -19.021130 -154.327268 -7.102009 17.633558 60.745168 -1.811762 -24.270510 -153.350642 -6.421305 -17.633558 2.386216 0.591618 4.755283
1151.529922 496.420240 135.029314 0.000000 0.000000 0.000000 0.000000 0.000000 0.000000 -116.362129 -5.029382 -16.886559 63.637871 1.081237 -16.886559 -149.081043 7.089881 14.452610 35.941860 0.474306 -26.289200 -156.847177 0.863009 -14.452610 2.056513 0.019713 4.842916
1148.402367 515.713574 141.333206 0.000000 0.000000 0.000000 0.000000 0.000000 0.000000 -118.252650 -2.217612 -13.690942 61.747350 5.228553 -13.690942 -138.082896 -1.041131 11.043737 -156.312677 -6.746716 -27.893295 21.649626 9.483558 -11.043737 2.962417 0.100428 4.911436
1175.363617 533.368646 120.387835 0.000000 0.000000 0.000000 0.000000 0.000000 0.000000 -95.476638 21.992973 -9.635073 84.523362 -7.357303 -9.635073 -113.907461 -2.144052 7.460697 -155.995907 -7.384838 -29.057495 12.512064 8.606240 -7.460697 -16.748794 -0.860624 4.960574
1199.533310 485.991104 151.698662 0.000000 0.000000 0.000000 0.000000 0.000000 0.000000 -100.003195 -0.866218 -4.973798 79.996805 2.597808 -4.973798 -86.083188 -2.958250 3.759997 38.843754 -0.237528 -29.763441 -106.539452 0.974802 -3.759997 6.197806 -0.213416 4.990134
962.588190 444.938442 133.261239 0.000000 0.000000 0.000000 0.000000 0.000000 0.000000 39.579754 51.677063 -0.000000 180.000000 -3.307325 -0.000000 36.680773 2.403869 0.000000 143.319227 15.866444 -30.000000 29.388385 -17.734623 -0.000000 18.000000 1.198645 5.000000
1142.094727 445.716287 146.285818 0.000000 0.000000 0.000000 0.000000 0.000000 0.000000 -140.228454 6.291133 4.973798 39.771546 3.133250 4.973798 -156.118008 -6.054658 -3.759997 3.479189 -18.123787 -29.763441 -158.005660 -4.208662 3.759997 2.150019 0.522213 4.990134
1164.005928 424.847746 108.604591 0.000000 0.000000 0.000000 0.000000 0.000000 0.000000 -84.241076 -2.846344 9.635073 95.758924 25.697741 9.635073 -156.181584 -5.824758 -7.460697 166.928360 4.517692 -29.057495 -154.947270 -5.922167 7.460697 2.644196 0.556062 4.960574
1124.208755 418.286655 120.502344 0.000000 0.000000 0.000000 0.000000 0.000000 0.000000 -117.427077 6.275723 13.690942 62.572923 -7.178856 13.690942 -155.943063 -5.752873 -11.043737 14.023837 -8.149783 -27.893295 -157.382674 -5.437578 11.043737 2.188130 0.520054 4.911436
